<svg xmlns="http://www.w3.org/2000/svg" width="1284" height="2778" viewBox="0 0 1284 2778">
  <defs>
    <radialGradient id="g1" cx="30%" cy="20%" r="60%">
      <stop offset="0%" stop-color="#00ff88" stop-opacity="0.12"/>
      <stop offset="100%" stop-color="#00ff88" stop-opacity="0"/>
    </radialGradient>
    <radialGradient id="g2" cx="80%" cy="85%" r="50%">
      <stop offset="0%" stop-color="#ff3366" stop-opacity="0.08"/>
      <stop offset="100%" stop-color="#ff3366" stop-opacity="0"/>
    </radialGradient>
  </defs>

  <!-- Background -->
  <rect width="1284" height="2778" fill="#0a0a0f"/>
  <rect width="1284" height="2778" fill="url(#g1)"/>
  <rect width="1284" height="2778" fill="url(#g2)"/>

  <!-- Noise texture lines (subtle) -->
  <rect x="0" y="1388" width="1284" height="1" fill="#ffffff" opacity="0.02"/>

  <!-- Center logo group -->
  <!-- Icon box -->
  <rect x="492" y="1109" width="300" height="300" rx="60" fill="#13131c" stroke="#00ff88" stroke-width="2" stroke-opacity="0.3"/>

  <!-- M in box -->
  <text x="642" y="1300" font-family="'Arial Black','Impact',sans-serif" font-size="220" font-weight="900"
    fill="#00ff88" text-anchor="middle" dominant-baseline="middle" letter-spacing="-8">M</text>

  <!-- MOMENTUM title -->
  <text x="642" y="1520" font-family="'Arial',sans-serif" font-size="86" font-weight="900"
    fill="#e8e8f0" text-anchor="middle" letter-spacing="18">MOMENTUM</text>

  <!-- Tagline -->
  <text x="642" y="1620" font-family="'Arial',sans-serif" font-size="36" font-weight="400"
    fill="#5a5a7a" text-anchor="middle" letter-spacing="4">HABIT TRACKER · AI COACH</text>

  <!-- Energy bar -->
  <rect x="342" y="1680" width="600" height="6" rx="3" fill="#1c1c2e"/>
  <rect x="342" y="1680" width="440" height="6" rx="3" fill="#00ff88" opacity="0.9"/>

  <!-- Loading dots -->
  <circle cx="592" cy="1740" r="6" fill="#00ff88" opacity="0.9"/>
  <circle cx="622" cy="1740" r="6" fill="#00ff88" opacity="0.5"/>
  <circle cx="652" cy="1740" r="6" fill="#00ff88" opacity="0.2"/>

  <!-- Top decoration -->
  <rect x="0" y="0" width="1284" height="3" fill="#00ff88" opacity="0.2"/>

  <!-- Corner accents -->
  <line x1="80" y1="100" x2="180" y2="100" stroke="#00ff88" stroke-width="2" opacity="0.25"/>
  <line x1="80" y1="100" x2="80" y2="200" stroke="#00ff88" stroke-width="2" opacity="0.25"/>
  <line x1="1204" y1="100" x2="1104" y2="100" stroke="#00ff88" stroke-width="2" opacity="0.25"/>
  <line x1="1204" y1="100" x2="1204" y2="200" stroke="#00ff88" stroke-width="2" opacity="0.25"/>
  <line x1="80" y1="2678" x2="180" y2="2678" stroke="#00ff88" stroke-width="2" opacity="0.25"/>
  <line x1="80" y1="2678" x2="80" y2="2578" stroke="#00ff88" stroke-width="2" opacity="0.25"/>
  <line x1="1204" y1="2678" x2="1104" y2="2678" stroke="#00ff88" stroke-width="2" opacity="0.25"/>
  <line x1="1204" y1="2678" x2="1204" y2="2578" stroke="#00ff88" stroke-width="2" opacity="0.25"/>

  <!-- Feature pills at bottom -->
  <rect x="242" y="1820" width="240" height="52" rx="26" fill="#13131c" stroke="#1c1c2e" stroke-width="1"/>
  <text x="362" y="1851" font-family="'Arial',sans-serif" font-size="24" fill="#5a5a7a" text-anchor="middle">🌍 GLOBAL</text>

  <rect x="522" y="1820" width="240" height="52" rx="26" fill="#13131c" stroke="#1c1c2e" stroke-width="1"/>
  <text x="642" y="1851" font-family="'Arial',sans-serif" font-size="24" fill="#5a5a7a" text-anchor="middle">🤖 AI COACH</text>

  <rect x="802" y="1820" width="240" height="52" rx="26" fill="#13131c" stroke="#1c1c2e" stroke-width="1"/>
  <text x="922" y="1851" font-family="'Arial',sans-serif" font-size="24" fill="#5a5a7a" text-anchor="middle">⚡ ENERGY</text>
</svg>
